<?xml version="1.0" encoding="UTF-8"?>
<svg version="1.1" viewBox="0 0 800 800" xmlns="http://www.w3.org/2000/svg">
<defs>
<linearGradient id="a" x1="50%" x2="50%" y2="100%">
<stop stop-color="hsl(206, 75%, 49%)" offset="0"/>
<stop stop-color="hsl(331, 90%, 56%)" offset="1"/>
</linearGradient>
</defs>
<g fill="none" stroke="url(#a)" stroke-linecap="round">
<path d="m873.8 381.57c18.87 31.06 23.02 65.3 11.8 102.29-22.03 37.16-52.97 76.92-86.87 117.56-30.64 38.31-56.26 73.17-75.53 100.03-14.74 20.99-31.22 12.68-46 22.11-13.27 29.56-31.81 72.89-54.74 118.14-24.69 32.22-52.49 38.1-82.1 16.12-30.13-31.57-61.1-54.83-92.17-52.43-31.07 30.58-60.75 66.04-89.21 83.43-28.97-9.74-57.69-46.04-86.84-92.11-30.9-37.45-63.53-56.62-98.14-58.16-36.52 11.74-74.27 21.88-111.38 21.4-34.85-12.18-64.52-39.15-85.7-75.9-13.07-42.53-15.32-86.25-7.44-127.69 11.12-39.75 24.38-76.09 34.4-109.67-0.76-32.48-11.19-64.02-30.07-95.09-25.32-31.06-46.55-60.18-57.8-86.29-0.84-25.01 12.85-45.19 38.34-59.27 31.84-12.4 67.27-19.84 101.81-25.18 29.78-11.14 54.63-28.76 74.79-57.29 14.36-40.24 26.82-87.21 39.42-131.29 10.96-30.81 24.79-39.5 42.18-24.83 17.85 23.3 39.6 41.91 64.82 39.66 25.56-29.36 54.07-71.1 85.13-101.69 31.07-2.42 63.22 27.14 96.25 70.7 33.36 33.96 68.13 45.76 104.12 36.32 36.44-22.46 73.78-37.94 110.69-35.15 35.28 21.82 67.42 60.81 93.78 107.01 20.56 45.5 32.54 84.03 35.11 113.95-2.2 21.03-9.78 37.33-18.84 52.86-2.72 13.19 1.27 29.95 14.1 51.38 23.24 21.59 50.77 48.01 76.09 79.08" opacity=".12"/>
<path d="m855.81 404.81c18.31 29.82 23.02 62.88 13.44 98.32-19.85 35.08-48.72 71.47-81.38 106.81-30.73 31.91-57.72 58.52-79.28 76.23-19.05 10.75-39.7 5.3-53.01 25.92-10.99 34.68-26.62 78.85-46.48 120.28-21.26 26.16-45.89 26.92-72.89 3.27-27.46-30.16-56.42-51.18-86.25-48.24-29.82 29.02-59.09 63.3-87.87 82.23-29.25-5.35-58.87-36.77-89.29-80.63-31.83-39.84-65.31-65.16-100.29-73.61-35.95 6.74-72.16 16.57-106.6 20.49-31.32-3.96-56.83-21.47-73.75-49.8-9.5-35.67-9.25-75.46-0.38-115.37 10.79-40.11 22.69-77.71 31.02-112.34-1.92-33.97-12.68-65.85-30.98-95.68-24.27-29.82-44.88-56.18-56.54-78.45-2.41-21.61 8.69-38.27 31.23-49.84 29.23-11.78 63.04-21.1 97.27-31.39 30.93-17.63 57.95-42.93 80.72-78.06 17.34-43 32.26-88.2 46.48-125.99 11.98-22.6 25.85-24.03 42.51-6.06 16.61 22 36.73 36.44 60.26 30.29 23.72-30.42 50.6-70.74 80.43-99.77 29.82-2.95 61.16 24.11 93.69 65.77 32.71 35.16 66.85 51.38 101.92 47.08 35.02-19.56 70.27-36.98 104.25-40.61 31.74 12.72 59.64 43.48 81.39 84.82 16.32 44.96 24.66 87.01 24.79 122.61-3.17 28.26-10.25 50.77-17.62 70.55-0.68 16.34 5.19 34.2 19.11 55.37 23.17 20.79 49.83 45.97 74.09 75.79q0.01 0.01 0.01 0.01" opacity=".47"/>
<path d="m837.81 426.98c17.73 28.58 22.95 59.61 14.91 92.02-17.69 31.66-44.41 63.03-75.56 91.62-30.4 24.86-58.31 43.43-81.74 53.47-23.14 4.34-49.29 8.51-62.37 39.73-9.6 38.15-23.12 81.43-40.52 118.05-18.38 20.05-40.24 16.25-64.82-8.54-24.98-28.52-52.01-47.35-80.59-43.93-28.58 27.48-57.36 60.47-86.28 80.61-29.32-1.29-59.46-27.65-90.6-68.43-32.13-40.83-65.68-71.15-100.12-86.38-34.55 0.47-68.44 7.61-99.59 13.21-27.49 1.87-48.78-7.35-61.7-27.1-6.32-27.29-4.05-60.83 5.4-96.73 10.2-37.67 20.66-74.29 27.33-108.47-3-34.02-14.01-65.53-31.74-94.11-23.2-28.58-43.15-52.88-55.1-72.76-3.82-19.72 4.84-35.09 24.45-46.95 26.44-13.63 58.26-27.16 91.6-43.92 31.41-24.3 60-56.11 84.97-95.44 20.12-43.06 37.6-84.08 53.78-114.32 13.58-14.51 28.17-9.82 44.78 10.04 16.12 19.83 35.25 29.93 57.53 20.19 22.33-31.17 47.83-69.95 76.41-97.43 28.58-3.42 58.88 21.2 90.46 60.74 31.62 35.82 64.48 55.89 97.89 56.79 32.92-15.67 65.4-33.32 95.86-41.71 27.88 4.51 51.43 26.45 68.77 60.99 12.49 41.44 17.79 83.97 16.14 122.92-3.59 34.02-9.77 62.51-15.27 87.18 1.33 20.94 8.94 41.56 23.78 63.8 22.98 21.49 48.72 46.27 71.93 74.85q0.01 0.01 0.01 0.01" opacity=".18"/>
<path d="m819.81 443.21c17.14 27.34 22.79 55.75 16.22 84.13-15.61 27.46-40.11 53.09-69.53 74.68-29.67 18.28-58 30.24-82.87 35.01-26.82 2.23-59.31 20.96-73.2 61.28-9.09 39.77-21.31 80.6-36.93 111.69-16.18 14.1-35.73 6.33-58.22-19.05-22.78-26.71-48.01-43.4-75.35-39.55-27.34 25.95-55.49 57.57-84.27 78.59-29.07 2.4-59.24-18.88-90.44-55.83-31.76-40.45-64.56-74.4-97.6-95.79-32.41-6.41-63.33-3.86-90.78 0.84-32.1 3.37-51.64-41.99-40.1-85.17 9.38-32.92 18.32-66.45 23.38-98.65-3.98-32.51-15.17-62.8-32.31-90.14-22.16-27.34-41.39-50.43-53.53-69.48-5.04-19.36 1.34-35.56 18.09-50.02 23.55-17.21 53.01-36.19 84.97-59.61 31.23-30.01 60.74-66.24 87.37-106.95 22.55-40.53 42.47-75.5 60.72-97.56 15.54-7.08 31.36 2.35 48.45 22.76 16.29 16.92 34.99 22.64 56.44 9.69 21.36-31.56 45.71-68.71 73.05-94.66 27.34-3.86 56.37 18.36 86.56 55.61 30.11 35.93 61.14 59.27 92.23 65.2 30.28-11.04 59.49-27.35 86.09-38.66 23.88-2.3 43.21 11.01 56.5 37.6 9.19 35.49 12.1 75.52 9.34 115.04-3.49 37.36-8.44 70.43-11.96 99.52 3.28 25.78 12.46 49.89 28.05 73.98 22.68 23.18 47.46 48.15 69.62 75.49q0.01 0.01 0.01 0.01" opacity=".21"/>
<path d="m801.8 449.92c16.53 26.1 22.54 51.64 17.33 75.7-13.57 23.19-35.81 43.32-63.31 58.81-28.59 13.15-56.88 20.74-82.68 23.16-21.16 2.9-38.75 5.37-53.42 11.65-10.7 15.85-20.66 41.17-31.22 75.66-9.35 39.56-21.04 76.6-35.56 101.7-14.67 8.49-32.48-2.59-53.25-28.06-20.93-24.75-44.55-39.37-70.65-35.13-26.1 24.45-53.43 54.6-81.71 76.18-28.45 5.68-58.11-10.61-88.66-43.18-30.7-38.8-61.99-74.89-92.85-101.39-29.67-13.26-57.17-16.53-80.67-14.92-26.21 5.32-37.83-21.15-25.92-54.07 8.37-26.76 15.76-55.67 19.26-84.66-4.86-29.61-16.16-57.93-32.69-84.03-21.11-26.1-39.61-48.73-51.81-68.34-6.09-20.22-1.81-38.77 12.18-57.24 20.6-21.56 47.46-46.02 77.58-75.09 30.43-33.87 60.18-71.9 87.87-111.14 24.45-35.82 46.51-63.49 66.75-77.4 17.62-0.67 34.95 12.02 52.9 31.69 16.95 13.45 35.68 14.88 56.64-0.87 20.79-31.66 44.2-67.09 70.29-91.53 26.1-4.24 53.64 15.67 82.07 50.48 28.25 35.53 56.99 61.47 85.27 72.1 27.27-5.97 52.92-19.6 75.52-31.99 19.98-7.33 35.38-1.7 45.14 16.66 6.51 27.91 7.7 62.91 4.44 100.23-2.94 37.79-6.4 73.18-7.88 105.26 5.13 29.72 15.7 57.07 31.86 83.09 22.28 25.16 46.06 50.57 67.17 76.66q0.01 0.01 0.01 0.01" opacity=".4"/>
<path d="m783.8 445.63c15.9 24.86 22.22 47.67 18.28 67.81-11.63 19.49-31.6 35.23-57.03 46.42-27.19 10.07-54.97 15.92-81.21 18.87-22.62 5.54-42.21 13.01-59.05 25.89-13.06 21.91-24.93 51.93-36.76 88.14-10.23 37.64-22.06 69.83-36.1 88.79-13.86 3.37-30.48-10.32-49.9-35.4-19.48-22.67-41.7-35.31-66.55-30.76-24.86 22.96-51.16 51.57-78.55 73.42-27.46 8.53-56.05-2.95-85.26-30.75-29.02-36.04-58.12-72.74-86.2-103.02-26.48-19.47-50.28-29.09-69.79-32.16-20.68 3.36-25.77-10.53-14.05-34.04 7.21-20.26 13.04-43.86 15.08-68.93-5.65-25.82-17.01-51.63-32.91-76.49-20.06-24.85-37.78-47.57-49.96-68.62-6.97-21.79-4.59-43.41 6.79-66.22 17.66-25.59 41.72-54.45 69.62-87.18 29.06-35.33 58.39-72.4 86.49-107.63 25.72-29.51 49.46-49.36 71.41-55.77 19.59 4.4 38.5 18.82 57.49 36.64 17.91 9.58 36.99 6.92 57.72-11.2 20.5-31.43 43.13-65.08 67.98-88.03 24.85-4.57 50.75 13.1 77.13 45.36 26.14 34.67 52.26 62.51 77.43 77.36 24.08-0.74 46.1-10.64 64.82-22.4 22.32-10.61 39.69 33.57 36.57 80.44-2.02 35.35-3.79 70.43-3.23 103.43 6.83 31.88 18.59 61.35 35.15 88.73 21.77 26.73 44.54 52.45 64.59 77.3" opacity=".09"/>
<path d="m765.81 431.31c15.25 23.61 21.8 44.15 19.02 61.31-9.79 16.83-27.51 29.83-50.76 38.97-25.5 9.22-52.37 15.85-78.54 21.72-23.53 9.79-44.68 23.05-63.36 42.24-15.29 26.76-29.15 59.58-42.49 95.49-17.78 47.55-59.72 64.85-86.14 32.79-18.42-20.52-39.44-31.26-63.05-26.43-23.61 21.5-48.69 48.51-74.81 70.33-26.08 10.92-53.08 3.92-80.36-18.9-26.82-32.36-53.22-68.21-78.07-100.72-53.75-41.56-74.47-59.31-63.43-75.58 5.95-14.53 10.23-33.01 10.9-54.09-6.33-21.79-17.66-44.88-32.91-68.49-19.01-23.62-35.93-46.63-47.99-69.36-7.67-23.44-6.99-47.92 1.94-74.3 14.77-28.42 35.93-59.76 61.3-93.6 27.2-34.24 55.49-67.84 83.33-97.15 26.32-22.34 51.15-34.57 74.39-34.62 21.25 7.92 41.62 22.6 61.65 37.65 18.96 5.52 38.56-0.92 59.21-20.94 20.38-30.93 42.34-62.72 65.95-84.22 23.62-4.84 47.76 10.68 71.9 40.31 23.88 33.36 47.23 62.41 69.18 80.86 51.19-11.41 84.35-0.62 81.58 36.29-0.79 30.52-0.77 62.77 1.76 94.47 8.38 31.78 21.13 61.73 37.91 89.42 21.17 27.36 42.87 52.93 61.88 76.54q0.01 0.01 0.01 0.01" opacity=".28"/>
<path d="m747.8 410.07c17.95 31.82 3.79 78.17-24.96 93.53-23.59 10.34-49.16 19.73-74.8 30.04-23.89 14.74-46.07 33.62-66.2 57.97-17.22 29.87-32.97 63.44-47.87 97.18-19.82 40.01-62.83 44.28-88.47 12.8-17.68-18.3-37.69-27.25-60.06-22.2-22.37 20.06-46.03 45.42-70.53 66.94-24.4 12.83-49.39 9.93-74.26-7.9-24.24-27.98-47.59-61.66-68.99-94.8-27.75-38.62-59.39-72.39-60.96-77.96 5.11-4.85 21.05-34.4 21.85-59.19-6.91-18.14-18.16-38.66-32.75-61.03-17.96-22.37-34.05-45.53-45.89-69.56-8.21-24.57-9-50.91-2.34-79.3 12-29.44 30.23-60.92 52.87-93.22 24.93-30.86 51.62-59.07 78.58-81.33 26.21-15.09 51.49-20.54 75.47-15.75 22.44 9.85 43.94 23.47 64.83 35.06 19.93 1.43 40.04-8.39 60.64-29.85 20.33-30.15 41.67-60.04 64.04-80.1 22.37-5.06 44.71 8.41 66.55 35.35 21.59 31.69 42.17 61.26 61 82.58 42.35-1.51 67.96-4.35 66.23 22.01 0.64 24.16 2.48 51.6 6.88 80.02 9.73 29.46 23.25 58.05 40.09 84.82 20.47 26.75 41.09 51.52 59.05 73.89" opacity=".42"/>
<path d="m729.73 386.52c17.34 30.09 6.96 75.58-18.4 93.2-21.5 12.86-45.44 26.12-70.1 41.39-23.72 19.43-46.39 42.88-67.48 70.64-18.76 30.98-36.12 63.3-52.5 93.29-21.97 31.69-66.83 24.59-92.08-5.63-17.22-16.09-36.37-23.34-57.5-18.12-21.12 18.65-43.22 42.31-65.84 63.28-22.47 14.28-45.13 15-67.28 2.02-21.42-23.16-41.56-53.55-59.47-85.78-16.18-29.92-29.14-54.96-38.08-74.19-4.93-26 10.29-59.96 9.19-80.9-7.41-15.38-18.54-33.74-32.46-54.87-16.93-21.12-32.17-44-43.68-68.47-8.56-24.75-10.6-51.47-5.96-79.84 9.42-28.46 24.76-57.75 44.58-86.23 22.36-25.77 47-47.47 72.5-62.44 25.42-8.46 50.46-8.47 74.56-0.55 23.04 10.24 45.23 21.68 66.64 29.36 20.63-2.5 41.08-15.24 61.55-37.67 20.24-29.12 40.93-57.06 62.05-75.71 21.13-5.23 41.68 6.3 61.29 30.53 19.37 29.68 37.34 59.1 53.32 82.53 34.97 9.49 55.73 0 55.57 16.58 2.18 17.28 5.78 38.81 11.85 62.56 10.84 25.38 24.9 51.02 41.62 75.68 19.66 24.9 39.18 48.21 56.11 69.34" opacity=".51"/>
<path d="m711.81 366.12c16.63 28.64 9.55 75.88-12.55 97.3-19.3 15.94-41.36 33.23-64.65 52.97-23 23.03-45.58 49.36-67.06 78.43-19.74 30.09-38.29 59.39-55.83 84.49-23.9 23.15-70.79 6.71-95.88-21.69-16.92-13.88-35.3-19.55-55.18-14.22-19.88 17.26-40.32 39.21-60.9 59.4-20.41 15.27-40.59 19.08-59.9 10.65-18.57-18.15-35.57-44.41-50.18-74.36-13.11-29.99-23.1-57.34-29.43-80.37-1.82-39.1 10.14-79.61 7.39-98.67-7.74-13.73-18.63-30.52-31.83-50.4-15.88-19.89-30.24-41.91-41.38-65.68-8.79-23.79-11.91-49.25-9.11-75.61 6.98-25.64 19.5-50.88 36.42-73.95 19.56-19.78 41.77-34.72 65.34-42.98 24.01-3.04 48.17 0.74 71.8 10.03 23.02 9.24 45.35 17.67 66.89 21.25 20.96-6.14 41.5-21.26 61.69-44.2 20-27.86 39.99-53.84 59.87-71.1 19.88-5.34 38.72 4.36 56.22 25.9 17.3 27.39 32.93 56.06 46.42 80.78 38.36 16.13 55.84 38.88 66.09 65.12 11.77 20.3 26.2 41.93 42.67 63.62 18.81 22.09 37.2 43.4 53.07 63.28q0.01 0.01 0.01 0.01" opacity=".79"/>
<path d="m693.81 353.07c12.48 18.64 19.32 36.04 20.12 52.42-3.55 16.82-12.94 33.46-27.14 50.65-17.02 18.77-37 39.33-58.59 62.22-21.84 25-43.79 52.18-65.14 80.4-20.15 27.41-39.41 52.35-57.74 71.89-17.09 12.93-33.75 16.94-50.23 11.3-15.81-11.54-32.05-28.29-48.91-46.01-16.68-11.71-34.33-15.93-52.97-10.54-18.64 15.91-37.38 36.12-55.85 55.33-18.3 15.81-35.97 22.15-52.46 17.83-15.82-13.19-29.86-34.78-41.5-61.32-10.4-28.43-17.9-56.29-22.17-81.53-3.16-30.62 3.01-71.69 8-87.78-0.08-15.15-17.63-55.17-35.42-81.73-14.84-18.64-28.31-39.2-38.99-61.18-8.86-21.79-12.81-44.55-11.58-67.28 4.8-21.53 14.69-41.59 28.78-58.55 16.69-13.74 36.23-22.52 57.48-25.32 22.09 0.8 44.77 6.57 67.33 15.59 22.35 7.14 44.23 12.01 65.4 11.53 20.81-9.33 41.08-26.28 60.75-49.28 19.53-26.4 38.69-50.39 57.33-66.3 18.64-5.4 35.87 2.59 51.5 21.5 15.48 24.9 29.12 52.27 40.62 77.48 34.2 29.91 56.1 42.96 68.38 61.56 12.43 15.12 26.99 32.38 43.05 50.71 17.87 18.78 35.11 37.77 49.95 56.41" opacity=".24"/>
<path d="m675.79 350.35c11.75 17.4 18.51 34.72 19.94 52.05-2.32 17.71-9.91 36.13-21.95 55.64-31.63 42.24-72.22 91.98-113.91 143.78-38.99 43.55-75.6 66.22-109.84 56.11-16.29-12.18-32.66-27.86-49.23-43.42-16.42-9.63-33.34-12.52-50.74-7.11-17.4 14.59-34.44 33.06-50.84 51.12-16.23 15.91-31.51 24.21-45.37 23.46-26.06-24.39-43.75-73.34-50.36-125.38-3.92-44.5-0.23-78.34 5.9-106.34-1.87-18.23-20.71-59.4-37.6-84.46-13.8-17.4-26.36-36.04-36.51-55.38-8.78-19.04-13.36-38.15-13.45-56.34 8.99-32.29 34.98-52.76 71.01-53.87 40.3 6.44 82.98 18.49 123.72 17.37 20.14-11.99 39.75-30.19 58.63-52.82 18.79-24.77 36.99-46.77 54.38-61.36 17.4-5.41 33.17 1.01 47.19 17.35 13.93 22.28 25.97 47.86 35.98 72.79 19.56 35.61 31.18 49.85 36.48 51.9 15.03-3.92 57.09 33.67 79.82 55.39 16.87 15.47 32.95 32.13 46.75 49.52" opacity=".69"/>
<path d="m657.8 358.58c19.41 32.31 19.64 68.51 2.39 108.87-27.1 42.65-63.66 90.19-102.67 134.82-38.01 33.5-74.62 45.9-108.77 30.79-32.46-24.16-64.9-45.48-97.21-43.65-32.31 32.16-61.42 64.55-84.96 74.31-21.84-15.19-35.65-55.53-39.99-103.82-3.33-46.61-1.04-85.82 2.38-118.34-6.44-27.74-19.76-56.32-39.17-88.63-26.37-32.31-44.37-65.29-48.73-93.53 5.21-23.48 25.82-34.69 56.44-30.43 35.33 5.95 74.23 12.02 112.21 3.53 37.95-33.45 74.07-78.93 106.37-111.09 32.32-1.84 57.76 32.58 75.8 80.43 18.02 38.79 29.54 60.65 36.55 69.5 11.72-2.29 25.38 0.59 43.85 13.94 28.04 15.62 59.13 40.98 85.5 73.29q0.01 0.01 0.01 0.01" opacity=".88"/>
<path d="m639.81 375.91c18.31 29.82 19.95 65.48 6.17 105.37-22.65 40.12-54.81 82.08-90.43 117.34-35.94 23.37-71.47 27.12-104.76 8.98-32.14-21.95-63.47-39.14-93.29-36.2-29.83 29.02-55.32 59.44-74.86 72.43-18.4-6.95-29.41-37.92-32.56-80.01-3.46-44.96-2.94-86.38-2.15-121.67-8.08-31.85-21.81-61.91-40.12-91.73-32.8-43.21-37.03-95.38-3.91-92.07 30.01 3.01 64.43 2.34 98.93-12.57 34.96-34.85 68.49-77.36 98.31-106.38 29.83-2.94 53.12 26.33 69.85 70.14 17.18 40 29.3 67.89 38.39 83.6 13.8 3.84 29.75 8.41 49.6 19.98 27.41 11.79 56.56 32.96 80.82 62.78q0.01 0.01 0.01 0.01" opacity=".53"/>
<path d="m621.76 398.48c17.16 27.34 19.97 60.66 9.35 97.09-18.36 35.14-45.92 69.2-77.61 94.23-32.93 14.14-66.38 11.25-98-8.03-31-19.06-60.75-32.29-88.08-28.44-38.51 39.97-86.43 58.19-93.94 13.1-4.14-40.06-5.57-80.25-7.25-115.91-9.42-33.83-23.31-64.43-40.47-91.77-30.15-38.08-39.35-75.33-13.44-72.33 24.62-1.55 54.15-8.93 84.69-28.95 31.29-35.07 61.78-74.19 89.12-100.14 27.34-3.85 48.94 20.46 65.03 59.56 16.83 39.32 29.96 71.2 41.18 92.89 15.58 10.81 33.25 19.41 53.84 31.65 26.36 10.94 53.41 29.71 75.58 57.05" opacity=".68"/>
<path d="m603.81 421.51c15.9 24.85 19.57 54.3 11.72 85.01-14.4 28.61-37.38 53.77-64.82 69.06-29.21 6.54-59.7-0.74-88.91-19.48-29.02-15.7-56.69-25.25-81.54-20.7-34.7 35.63-76.6 63.13-84.11 30.84-5.14-32.83-8.51-68.75-12.33-102.24-10.37-33.15-24.11-62.85-40.01-87.7-27.43-33.68-40.3-63.45-20.9-64.62 19.4-6.79 43.92-20.13 70.22-43.74 27.18-34.16 54.3-69.57 79.15-92.53 24.86-4.57 45.09 15.06 60.98 48.97 16.77 36.96 31.04 70.61 44.22 96.63 16.94 17.29 35.74 30.92 56.5 45.37 24.96 12.37 49.77 30.27 69.83 55.13" opacity=".83"/>
<path d="m585.8 439.72c14.59 22.37 18.9 47.01 13.46 70.83-10.78 21.62-29.32 38.23-52.36 45.36-25.03 1.05-51.89-8.4-78.1-25.23-26.31-12.1-51.45-18.34-73.82-13.29-31.11 31.26-68.88 64.62-77.19 44.25-6.28-24.43-11.45-53.91-17.07-83.1-10.96-29.92-24.33-57.19-38.92-79.56-24.65-30.04-39.82-58.85-25.97-66.45 14.64-11.8 34.32-29.8 56.36-55.34 22.9-32.27 46.51-63.73 68.87-83.79 22.37-5.06 41.39 10.24 57.25 38.73 16.72 33.23 31.95 66.41 46.63 94.67 17.72 22.19 36.93 40.49 57.24 57.63 23.2 14.94 45.66 32.92 63.62 55.29" opacity=".16"/>
<path d="m567.81 449.2c15.54 29.68-0.32 76.42-26.23 82.45-20.64-2.2-43.48-11.84-66.24-25.75-23.06-8.5-45.31-11.83-65.19-6.5-45.2 44.82-82.91 25.35-93.23-9.22-11.17-24.82-23.91-48.39-37.11-68.27-21.85-27.04-38.05-59.23-28.75-73.74 10.5-15.82 25.74-36.78 43.71-62.61 18.71-29.52 38.79-56.9 58.67-74.16 19.88-5.33 37.69 6.06 53.43 29.13 16.48 28.49 32.28 59.22 47.83 87.47 17.84 24.78 36.77 46.31 56.07 65.58 21.15 17.45 41.16 35.73 57.03 55.61q0.01 0.01 0.01 0.01" opacity=".88"/>
<path d="m549.8 447.82c20.43 34.8 12.03 57.77-15.38 56.25-34.1-6.75-75.24-23.19-110.03-22.68-34.79 35.35-56.65 60.48-68.16 55.03-18.19-21.98-38-61.64-58.43-96.43-28.47-34.79-39.05-58.14-29.34-81.76 15.97-40.16 46.86-93.49 81.65-128.84 34.79-0.51 66.9 44.14 96.54 96.49 35.89 47.12 74.68 87.15 103.15 121.94" opacity=".47"/>
<path d="m531.77 435.87c16.07 36.99-48.94 29.3-95.37 27.47-29.82 29.02-50.61 51.7-63.97 52.38-18.66-9.51-38.34-36.68-56.66-66.5-24.27-29.82-34.22-56.65-27.97-86.23 10.15-39.78 33.75-86.63 63.58-115.65 29.82-2.94 60.21 30.77 89.15 74.71 32.84 44.33 66.97 84 91.24 113.82" opacity=".64"/>
<path d="m513.81 416.12c15.08 29.62-31.19 26.43-68.82 29.28-24.85 22.96-44.3 41.73-58.64 45.35-18.12-1.28-36.65-18.2-52.54-43.05-20.06-24.85-28.81-52.94-24.95-84.23 5.95-36.2 23.44-75.11 48.3-98.07 24.85-4.55 52.35 19.01 78.98 53.09 28.71 37.31 57.61 72.77 77.67 97.63" opacity=".19"/>
<path d="m495.81 392.75c13.36 23.76-17.2 28.65-46.35 34.65-28.62 24.29-76.23 33.01-97.65 8.23-15.88-19.89-23.01-46.07-20.64-74.75 3.23-30.05 15.83-60.21 35.71-77.48 19.88-5.33 43.29 9.45 66.11 33.46 23.69 27.76 46.94 56.01 62.82 75.89" opacity=".78"/>
<path d="m477.78 370.94c18.32 29.82 1.4 35.48-28.42 38.42-29.83 29.03-61.26 36.12-79.58 6.3-24.27-29.83-19.98-85.27 9.85-114.3 29.82-2.94 73.88 39.75 98.15 69.58" opacity=".99"/>
<path d="m459.81 355.6c-52.79 19.48-30.74-30.71 0 0" opacity=".62"/>
</g>
</svg>
